<?xml version="1.0" encoding="UTF-8" standalone="no"?>
<!DOCTYPE svg PUBLIC "-//W3C//DTD SVG 1.1//EN"
 "http://www.w3.org/Graphics/SVG/1.1/DTD/svg11.dtd">
<!-- Generated by graphviz version 11.0.0 (20240428.1522)
 -->
<!-- Title: ClassDiagram Pages: 1 -->
<svg width="678pt" height="935pt"
 viewBox="0.00 0.00 678.25 934.50" xmlns="http://www.w3.org/2000/svg" xmlns:xlink="http://www.w3.org/1999/xlink">
<g id="graph0" class="graph" transform="scale(1 1) rotate(0) translate(4 930.5)">
<title>ClassDiagram</title>
<polygon fill="white" stroke="none" points="-4,4 -4,-930.5 674.25,-930.5 674.25,4 -4,4"/>
<!-- Receptionist -->
<g id="node1" class="node">
<title>Receptionist</title>
<polygon fill="none" stroke="black" points="0,-854.75 0,-926 129.25,-926 129.25,-854.75 0,-854.75"/>
<text text-anchor="middle" x="64.62" y="-908.7" font-family="Times New Roman,serif" font-size="14.00">Receptionist</text>
<polyline fill="none" stroke="black" points="0,-902.25 129.25,-902.25"/>
<text text-anchor="middle" x="64.62" y="-884.95" font-family="Times New Roman,serif" font-size="14.00"> </text>
<polyline fill="none" stroke="black" points="0,-878.5 129.25,-878.5"/>
<text text-anchor="middle" x="64.62" y="-861.2" font-family="Times New Roman,serif" font-size="14.00">+ answerCall() :void</text>
</g>
<!-- Front_Desk_Staff -->
<g id="node3" class="node">
<title>Front_Desk_Staff</title>
<polygon fill="none" stroke="black" points="18,-738.62 18,-809.88 135.25,-809.88 135.25,-738.62 18,-738.62"/>
<text text-anchor="middle" x="76.62" y="-792.58" font-family="Times New Roman,serif" font-size="14.00">Front_Desk_Staff</text>
<polyline fill="none" stroke="black" points="18,-786.12 135.25,-786.12"/>
<text text-anchor="middle" x="76.62" y="-768.83" font-family="Times New Roman,serif" font-size="14.00"> </text>
<polyline fill="none" stroke="black" points="18,-762.38 135.25,-762.38"/>
<text text-anchor="middle" x="76.62" y="-745.08" font-family="Times New Roman,serif" font-size="14.00"> </text>
</g>
<!-- Receptionist&#45;&gt;Front_Desk_Staff -->
<g id="edge4" class="edge">
<title>Receptionist&#45;&gt;Front_Desk_Staff</title>
<path fill="none" stroke="black" d="M68.29,-854.51C69.39,-844.1 70.6,-832.52 71.76,-821.5"/>
<polygon fill="none" stroke="black" points="75.22,-822.11 72.78,-811.8 68.26,-821.38 75.22,-822.11"/>
<text text-anchor="middle" x="68.73" y="-834.92" font-family="Times New Roman,serif" font-size="14.00"> </text>
</g>
<!-- Operations_Staff -->
<g id="node2" class="node">
<title>Operations_Staff</title>
<polygon fill="none" stroke="black" points="221.62,-622.5 221.62,-693.75 333.62,-693.75 333.62,-622.5 221.62,-622.5"/>
<text text-anchor="middle" x="277.62" y="-676.45" font-family="Times New Roman,serif" font-size="14.00">Operations_Staff</text>
<polyline fill="none" stroke="black" points="221.62,-670 333.62,-670"/>
<text text-anchor="middle" x="277.62" y="-652.7" font-family="Times New Roman,serif" font-size="14.00"> </text>
<polyline fill="none" stroke="black" points="221.62,-646.25 333.62,-646.25"/>
<text text-anchor="middle" x="277.62" y="-628.95" font-family="Times New Roman,serif" font-size="14.00"> </text>
</g>
<!-- Staff -->
<g id="node5" class="node">
<title>Staff</title>
<polygon fill="none" stroke="black" points="202.5,-467 202.5,-585.5 352.75,-585.5 352.75,-467 202.5,-467"/>
<text text-anchor="middle" x="277.62" y="-568.2" font-family="Times New Roman,serif" font-size="14.00">Staff</text>
<polyline fill="none" stroke="black" points="202.5,-561.75 352.75,-561.75"/>
<text text-anchor="middle" x="277.62" y="-544.45" font-family="Times New Roman,serif" font-size="14.00">+ joined : string</text>
<text text-anchor="middle" x="277.62" y="-528.7" font-family="Times New Roman,serif" font-size="14.00">+ education : string</text>
<text text-anchor="middle" x="277.62" y="-512.95" font-family="Times New Roman,serif" font-size="14.00">+ certification : string</text>
<text text-anchor="middle" x="277.62" y="-497.2" font-family="Times New Roman,serif" font-size="14.00">+ langauge : string</text>
<polyline fill="none" stroke="black" points="202.5,-490.75 352.75,-490.75"/>
<text text-anchor="middle" x="277.62" y="-473.45" font-family="Times New Roman,serif" font-size="14.00">+ printStaffInfo() :string</text>
</g>
<!-- Operations_Staff&#45;&gt;Staff -->
<g id="edge1" class="edge">
<title>Operations_Staff&#45;&gt;Staff</title>
<path fill="none" stroke="black" d="M277.62,-622.32C277.62,-614.54 277.62,-606.01 277.62,-597.36"/>
<polygon fill="none" stroke="black" points="281.13,-597.48 277.63,-587.48 274.13,-597.48 281.13,-597.48"/>
<text text-anchor="middle" x="275.75" y="-606.67" font-family="Times New Roman,serif" font-size="14.00"> </text>
</g>
<!-- Administrative_Staff -->
<g id="node12" class="node">
<title>Administrative_Staff</title>
<polygon fill="none" stroke="black" points="32.25,-622.5 32.25,-693.75 163,-693.75 163,-622.5 32.25,-622.5"/>
<text text-anchor="middle" x="97.62" y="-676.45" font-family="Times New Roman,serif" font-size="14.00">Administrative_Staff</text>
<polyline fill="none" stroke="black" points="32.25,-670 163,-670"/>
<text text-anchor="middle" x="97.62" y="-652.7" font-family="Times New Roman,serif" font-size="14.00"> </text>
<polyline fill="none" stroke="black" points="32.25,-646.25 163,-646.25"/>
<text text-anchor="middle" x="97.62" y="-628.95" font-family="Times New Roman,serif" font-size="14.00"> </text>
</g>
<!-- Front_Desk_Staff&#45;&gt;Administrative_Staff -->
<g id="edge16" class="edge">
<title>Front_Desk_Staff&#45;&gt;Administrative_Staff</title>
<path fill="none" stroke="black" d="M83.04,-738.39C84.96,-727.98 87.09,-716.4 89.11,-705.38"/>
<polygon fill="none" stroke="black" points="92.54,-706.12 90.9,-695.65 85.65,-704.86 92.54,-706.12"/>
<text text-anchor="middle" x="85.22" y="-718.79" font-family="Times New Roman,serif" font-size="14.00"> </text>
</g>
<!-- Recipe -->
<g id="node4" class="node">
<title>Recipe</title>
<polygon fill="none" stroke="black" points="505.88,-622.5 505.88,-693.75 637.38,-693.75 637.38,-622.5 505.88,-622.5"/>
<text text-anchor="middle" x="571.62" y="-676.45" font-family="Times New Roman,serif" font-size="14.00">Recipe</text>
<polyline fill="none" stroke="black" points="505.88,-670 637.38,-670"/>
<text text-anchor="middle" x="571.62" y="-652.7" font-family="Times New Roman,serif" font-size="14.00">+ description : string</text>
<polyline fill="none" stroke="black" points="505.88,-646.25 637.38,-646.25"/>
<text text-anchor="middle" x="571.62" y="-628.95" font-family="Times New Roman,serif" font-size="14.00"> </text>
</g>
<!-- Patient -->
<g id="node6" class="node">
<title>Patient</title>
<polygon fill="none" stroke="black" points="491.25,-467 491.25,-585.5 652,-585.5 652,-467 491.25,-467"/>
<text text-anchor="middle" x="571.62" y="-568.2" font-family="Times New Roman,serif" font-size="14.00">Patient</text>
<polyline fill="none" stroke="black" points="491.25,-561.75 652,-561.75"/>
<text text-anchor="middle" x="571.62" y="-544.45" font-family="Times New Roman,serif" font-size="14.00">+ id : int</text>
<text text-anchor="middle" x="571.62" y="-528.7" font-family="Times New Roman,serif" font-size="14.00"># accepted : boolean</text>
<text text-anchor="middle" x="571.62" y="-512.95" font-family="Times New Roman,serif" font-size="14.00">&#45; sickness : string</text>
<text text-anchor="middle" x="571.62" y="-497.2" font-family="Times New Roman,serif" font-size="14.00">&#45; allergies : string</text>
<polyline fill="none" stroke="black" points="491.25,-490.75 652,-490.75"/>
<text text-anchor="middle" x="571.62" y="-473.45" font-family="Times New Roman,serif" font-size="14.00">+ printPatientInfo() :string</text>
</g>
<!-- Recipe&#45;&gt;Patient -->
<g id="edge15" class="edge">
<title>Recipe&#45;&gt;Patient</title>
<path fill="none" stroke="black" d="M571.62,-622.32C571.62,-614.97 571.62,-606.97 571.62,-598.82"/>
<polygon fill="black" stroke="black" points="571.63,-598.87 567.63,-592.87 571.63,-586.87 575.63,-592.87 571.63,-598.87"/>
<text text-anchor="middle" x="554.75" y="-606.59" font-family="Times New Roman,serif" font-size="14.00">recipe</text>
</g>
<!-- Department -->
<g id="node11" class="node">
<title>Department</title>
<polygon fill="none" stroke="black" points="155.62,-287.88 155.62,-374.88 387.62,-374.88 387.62,-287.88 155.62,-287.88"/>
<text text-anchor="middle" x="271.62" y="-357.57" font-family="Times New Roman,serif" font-size="14.00">Department</text>
<polyline fill="none" stroke="black" points="155.62,-351.12 387.62,-351.12"/>
<text text-anchor="middle" x="271.62" y="-333.82" font-family="Times New Roman,serif" font-size="14.00"> </text>
<polyline fill="none" stroke="black" points="155.62,-327.38 387.62,-327.38"/>
<text text-anchor="middle" x="271.62" y="-310.07" font-family="Times New Roman,serif" font-size="14.00">+ addStaffToDepartment() :void</text>
<text text-anchor="middle" x="271.62" y="-294.32" font-family="Times New Roman,serif" font-size="14.00">+ removeStaffFromDepartment() :void</text>
</g>
<!-- Staff&#45;&gt;Department -->
<g id="edge18" class="edge">
<title>Staff&#45;&gt;Department</title>
<path fill="none" stroke="black" d="M275.8,-466.6C275.02,-441.61 274.12,-412.6 273.35,-387.95"/>
<polygon fill="none" stroke="black" points="273.36,-388.03 269.17,-382.16 272.98,-376.04 277.17,-381.91 273.36,-388.03"/>
<text text-anchor="middle" x="262" y="-423.29" font-family="Times New Roman,serif" font-size="14.00">staff</text>
<text text-anchor="middle" x="260.8" y="-453.3" font-family="Times New Roman,serif" font-size="14.00">[0..*]</text>
</g>
<!-- Person -->
<g id="node17" class="node">
<title>Person</title>
<polygon fill="none" stroke="black" points="405.88,-232.75 405.88,-430 549.38,-430 549.38,-232.75 405.88,-232.75"/>
<text text-anchor="middle" x="477.62" y="-412.7" font-family="Times New Roman,serif" font-size="14.00">Person</text>
<polyline fill="none" stroke="black" points="405.88,-406.25 549.38,-406.25"/>
<text text-anchor="middle" x="477.62" y="-388.95" font-family="Times New Roman,serif" font-size="14.00">+ title : string</text>
<text text-anchor="middle" x="477.62" y="-373.2" font-family="Times New Roman,serif" font-size="14.00">&#45; age : int</text>
<text text-anchor="middle" x="477.62" y="-357.45" font-family="Times New Roman,serif" font-size="14.00">+ givenName : string</text>
<text text-anchor="middle" x="477.62" y="-341.7" font-family="Times New Roman,serif" font-size="14.00">+ middleName : string</text>
<text text-anchor="middle" x="477.62" y="-325.95" font-family="Times New Roman,serif" font-size="14.00">+ familyName : string</text>
<text text-anchor="middle" x="477.62" y="-310.2" font-family="Times New Roman,serif" font-size="14.00">+ fullName : string</text>
<text text-anchor="middle" x="477.62" y="-294.45" font-family="Times New Roman,serif" font-size="14.00">&#45; birthday : date</text>
<text text-anchor="middle" x="477.62" y="-278.7" font-family="Times New Roman,serif" font-size="14.00"># gender : string</text>
<text text-anchor="middle" x="477.62" y="-262.95" font-family="Times New Roman,serif" font-size="14.00">&#45; homeAddress : string</text>
<polyline fill="none" stroke="black" points="405.88,-256.5 549.38,-256.5"/>
<text text-anchor="middle" x="477.62" y="-239.2" font-family="Times New Roman,serif" font-size="14.00">+ printInfo() :string</text>
</g>
<!-- Staff&#45;&gt;Person -->
<g id="edge7" class="edge">
<title>Staff&#45;&gt;Person</title>
<path fill="none" stroke="black" d="M352.97,-469.17C367.93,-456.97 383.16,-443.73 396.62,-430.5 397,-430.13 397.37,-429.76 397.75,-429.39"/>
<polygon fill="none" stroke="black" points="400.03,-432.06 404.54,-422.48 395.03,-427.16 400.03,-432.06"/>
<text text-anchor="middle" x="378.28" y="-448.4" font-family="Times New Roman,serif" font-size="14.00"> </text>
</g>
<!-- Callable -->
<g id="node10" class="node">
<title>Callable</title>
<polygon fill="none" stroke="black" points="290.75,-0.5 290.75,-71.75 418.5,-71.75 418.5,-0.5 290.75,-0.5"/>
<text text-anchor="middle" x="354.62" y="-54.45" font-family="Times New Roman,serif" font-size="14.00">«Callable»</text>
<polyline fill="none" stroke="black" points="290.75,-48 418.5,-48"/>
<text text-anchor="middle" x="354.62" y="-30.7" font-family="Times New Roman,serif" font-size="14.00">&#45; phoneNumber : int</text>
<polyline fill="none" stroke="black" points="290.75,-24.25 418.5,-24.25"/>
<text text-anchor="middle" x="354.62" y="-6.95" font-family="Times New Roman,serif" font-size="14.00"> </text>
</g>
<!-- Patient&#45;&gt;Callable -->
<g id="edge14" class="edge">
<title>Patient&#45;&gt;Callable</title>
<path fill="none" stroke="black" stroke-dasharray="5,2" d="M581.37,-466.7C588.84,-405.35 592.82,-307.6 558.62,-232.25 529.2,-167.4 467.45,-113.3 419.55,-78.64"/>
<polygon fill="none" stroke="black" points="421.58,-75.79 411.41,-72.85 417.53,-81.5 421.58,-75.79"/>
<text text-anchor="middle" x="556.74" y="-234.68" font-family="Times New Roman,serif" font-size="14.00"> </text>
</g>
<!-- Patient&#45;&gt;Person -->
<g id="edge13" class="edge">
<title>Patient&#45;&gt;Person</title>
<path fill="none" stroke="black" d="M543.04,-466.6C538.96,-458.22 534.66,-449.39 530.29,-440.43"/>
<polygon fill="none" stroke="black" points="533.53,-439.09 526,-431.63 527.24,-442.16 533.53,-439.09"/>
<text text-anchor="middle" x="532.28" y="-450.82" font-family="Times New Roman,serif" font-size="14.00"> </text>
</g>
<!-- Doctor -->
<g id="node7" class="node">
<title>Doctor</title>
<polygon fill="none" stroke="black" points="165.12,-730.75 165.12,-817.75 286.12,-817.75 286.12,-730.75 165.12,-730.75"/>
<text text-anchor="middle" x="225.62" y="-800.45" font-family="Times New Roman,serif" font-size="14.00">Doctor</text>
<polyline fill="none" stroke="black" points="165.12,-794 286.12,-794"/>
<text text-anchor="middle" x="225.62" y="-776.7" font-family="Times New Roman,serif" font-size="14.00">+ speciality : string</text>
<text text-anchor="middle" x="225.62" y="-760.95" font-family="Times New Roman,serif" font-size="14.00">+ location : string</text>
<polyline fill="none" stroke="black" points="165.12,-754.5 286.12,-754.5"/>
<text text-anchor="middle" x="225.62" y="-737.2" font-family="Times New Roman,serif" font-size="14.00"> </text>
</g>
<!-- Doctor&#45;&gt;Operations_Staff -->
<g id="edge10" class="edge">
<title>Doctor&#45;&gt;Operations_Staff</title>
<path fill="none" stroke="black" d="M245.14,-730.43C249.03,-721.89 253.13,-712.89 257.06,-704.27"/>
<polygon fill="none" stroke="black" points="260.15,-705.93 261.11,-695.38 253.78,-703.03 260.15,-705.93"/>
<text text-anchor="middle" x="251.65" y="-714.47" font-family="Times New Roman,serif" font-size="14.00"> </text>
</g>
<!-- Surgeon -->
<g id="node8" class="node">
<title>Surgeon</title>
<polygon fill="none" stroke="black" points="147.12,-854.75 147.12,-926 304.12,-926 304.12,-854.75 147.12,-854.75"/>
<text text-anchor="middle" x="225.62" y="-908.7" font-family="Times New Roman,serif" font-size="14.00">Surgeon</text>
<polyline fill="none" stroke="black" points="147.12,-902.25 304.12,-902.25"/>
<text text-anchor="middle" x="225.62" y="-884.95" font-family="Times New Roman,serif" font-size="14.00"> </text>
<polyline fill="none" stroke="black" points="147.12,-878.5 304.12,-878.5"/>
<text text-anchor="middle" x="225.62" y="-861.2" font-family="Times New Roman,serif" font-size="14.00">+ performSurgery() :void</text>
</g>
<!-- Surgeon&#45;&gt;Doctor -->
<g id="edge5" class="edge">
<title>Surgeon&#45;&gt;Doctor</title>
<path fill="none" stroke="black" d="M225.62,-854.51C225.62,-846.58 225.62,-837.97 225.62,-829.45"/>
<polygon fill="none" stroke="black" points="229.13,-829.46 225.63,-819.46 222.13,-829.46 229.13,-829.46"/>
<text text-anchor="middle" x="223.75" y="-838.69" font-family="Times New Roman,serif" font-size="14.00"> </text>
</g>
<!-- Surgical_Technologist -->
<g id="node9" class="node">
<title>Surgical_Technologist</title>
<polygon fill="none" stroke="black" points="321.88,-854.75 321.88,-926 537.38,-926 537.38,-854.75 321.88,-854.75"/>
<text text-anchor="middle" x="429.62" y="-908.7" font-family="Times New Roman,serif" font-size="14.00">Surgical_Technologist</text>
<polyline fill="none" stroke="black" points="321.88,-902.25 537.38,-902.25"/>
<text text-anchor="middle" x="429.62" y="-884.95" font-family="Times New Roman,serif" font-size="14.00"> </text>
<polyline fill="none" stroke="black" points="321.88,-878.5 537.38,-878.5"/>
<text text-anchor="middle" x="429.62" y="-861.2" font-family="Times New Roman,serif" font-size="14.00">+ prepareSurgicalEquipment() :void</text>
</g>
<!-- Technologist -->
<g id="node14" class="node">
<title>Technologist</title>
<polygon fill="none" stroke="black" points="380.25,-738.62 380.25,-809.88 469,-809.88 469,-738.62 380.25,-738.62"/>
<text text-anchor="middle" x="424.62" y="-792.58" font-family="Times New Roman,serif" font-size="14.00">Technologist</text>
<polyline fill="none" stroke="black" points="380.25,-786.12 469,-786.12"/>
<text text-anchor="middle" x="424.62" y="-768.83" font-family="Times New Roman,serif" font-size="14.00"> </text>
<polyline fill="none" stroke="black" points="380.25,-762.38 469,-762.38"/>
<text text-anchor="middle" x="424.62" y="-745.08" font-family="Times New Roman,serif" font-size="14.00"> </text>
</g>
<!-- Surgical_Technologist&#45;&gt;Technologist -->
<g id="edge6" class="edge">
<title>Surgical_Technologist&#45;&gt;Technologist</title>
<path fill="none" stroke="black" d="M428.1,-854.51C427.64,-844.1 427.13,-832.52 426.65,-821.5"/>
<polygon fill="none" stroke="black" points="430.16,-821.64 426.23,-811.8 423.17,-821.95 430.16,-821.64"/>
<text text-anchor="middle" x="425.26" y="-834.92" font-family="Times New Roman,serif" font-size="14.00"> </text>
</g>
<!-- Department&#45;&gt;Callable -->
<g id="edge17" class="edge">
<title>Department&#45;&gt;Callable</title>
<path fill="none" stroke="black" stroke-dasharray="5,2" d="M267.77,-287.52C265.34,-241.32 266.47,-166.55 291.62,-108.25 295.84,-98.47 301.94,-89.1 308.71,-80.55"/>
<polygon fill="none" stroke="black" points="311.2,-83.02 314.97,-73.12 305.85,-78.51 311.2,-83.02"/>
<text text-anchor="middle" x="270.8" y="-178.98" font-family="Times New Roman,serif" font-size="14.00"> </text>
</g>
<!-- Hospital -->
<g id="node15" class="node">
<title>Hospital</title>
<polygon fill="none" stroke="black" points="300.12,-108.75 300.12,-195.75 409.12,-195.75 409.12,-108.75 300.12,-108.75"/>
<text text-anchor="middle" x="354.62" y="-178.45" font-family="Times New Roman,serif" font-size="14.00">Hospital</text>
<polyline fill="none" stroke="black" points="300.12,-172 409.12,-172"/>
<text text-anchor="middle" x="354.62" y="-154.7" font-family="Times New Roman,serif" font-size="14.00">+ name : string</text>
<text text-anchor="middle" x="354.62" y="-138.95" font-family="Times New Roman,serif" font-size="14.00">&#45; address : string</text>
<polyline fill="none" stroke="black" points="300.12,-132.5 409.12,-132.5"/>
<text text-anchor="middle" x="354.62" y="-115.2" font-family="Times New Roman,serif" font-size="14.00"> </text>
</g>
<!-- Department&#45;&gt;Hospital -->
<g id="edge12" class="edge">
<title>Department&#45;&gt;Hospital</title>
<path fill="none" stroke="black" d="M291.72,-287.5C303.3,-262.79 317.94,-231.54 330.18,-205.41"/>
<polyline fill="none" stroke="black" points="334.57,-196.04 330.12,-205.55"/>
<path fill="none" stroke="black" d="M327.71,-198.9C330.77,-192.86 339.37,-197.1 336.77,-203.14"/>
<text text-anchor="middle" x="281.91" y="-244.45" font-family="Times New Roman,serif" font-size="14.00">department</text>
</g>
<!-- Administrative_Staff&#45;&gt;Staff -->
<g id="edge8" class="edge">
<title>Administrative_Staff&#45;&gt;Staff</title>
<path fill="none" stroke="black" d="M145.86,-622.32C160.45,-611.8 176.91,-599.92 193.14,-588.21"/>
<polygon fill="none" stroke="black" points="194.83,-591.31 200.89,-582.62 190.73,-585.63 194.83,-591.31"/>
<text text-anchor="middle" x="172.27" y="-604.37" font-family="Times New Roman,serif" font-size="14.00"> </text>
</g>
<!-- Technical_Staff -->
<g id="node13" class="node">
<title>Technical_Staff</title>
<polygon fill="none" stroke="black" points="372.38,-622.5 372.38,-693.75 476.88,-693.75 476.88,-622.5 372.38,-622.5"/>
<text text-anchor="middle" x="424.62" y="-676.45" font-family="Times New Roman,serif" font-size="14.00">Technical_Staff</text>
<polyline fill="none" stroke="black" points="372.38,-670 476.88,-670"/>
<text text-anchor="middle" x="424.62" y="-652.7" font-family="Times New Roman,serif" font-size="14.00"> </text>
<polyline fill="none" stroke="black" points="372.38,-646.25 476.88,-646.25"/>
<text text-anchor="middle" x="424.62" y="-628.95" font-family="Times New Roman,serif" font-size="14.00"> </text>
</g>
<!-- Technical_Staff&#45;&gt;Staff -->
<g id="edge19" class="edge">
<title>Technical_Staff&#45;&gt;Staff</title>
<path fill="none" stroke="black" d="M385.23,-622.32C375.13,-613.4 363.93,-603.5 352.68,-593.56"/>
<polygon fill="none" stroke="black" points="355.03,-590.97 345.22,-586.97 350.4,-596.22 355.03,-590.97"/>
<text text-anchor="middle" x="362.87" y="-606.67" font-family="Times New Roman,serif" font-size="14.00"> </text>
</g>
<!-- Technologist&#45;&gt;Technical_Staff -->
<g id="edge3" class="edge">
<title>Technologist&#45;&gt;Technical_Staff</title>
<path fill="none" stroke="black" d="M424.62,-738.39C424.62,-727.98 424.62,-716.4 424.62,-705.38"/>
<polygon fill="none" stroke="black" points="428.13,-705.68 424.63,-695.68 421.13,-705.68 428.13,-705.68"/>
<text text-anchor="middle" x="422.75" y="-718.79" font-family="Times New Roman,serif" font-size="14.00"> </text>
</g>
<!-- Hospital&#45;&gt;Callable -->
<g id="edge11" class="edge">
<title>Hospital&#45;&gt;Callable</title>
<path fill="none" stroke="black" stroke-dasharray="5,2" d="M354.62,-108.43C354.62,-100.26 354.62,-91.68 354.62,-83.41"/>
<polygon fill="none" stroke="black" points="358.13,-83.51 354.63,-73.51 351.13,-83.51 358.13,-83.51"/>
<text text-anchor="middle" x="352.75" y="-92.89" font-family="Times New Roman,serif" font-size="14.00"> </text>
</g>
<!-- Tehnician -->
<g id="node16" class="node">
<title>Tehnician</title>
<polygon fill="none" stroke="black" points="487,-730.75 487,-817.75 670.25,-817.75 670.25,-730.75 487,-730.75"/>
<text text-anchor="middle" x="578.62" y="-800.45" font-family="Times New Roman,serif" font-size="14.00">Tehnician</text>
<polyline fill="none" stroke="black" points="487,-794 670.25,-794"/>
<text text-anchor="middle" x="578.62" y="-776.7" font-family="Times New Roman,serif" font-size="14.00"> </text>
<polyline fill="none" stroke="black" points="487,-770.25 670.25,-770.25"/>
<text text-anchor="middle" x="578.62" y="-752.95" font-family="Times New Roman,serif" font-size="14.00">+ performMaintenance() :void</text>
<text text-anchor="middle" x="578.62" y="-737.2" font-family="Times New Roman,serif" font-size="14.00">+ repairEquipment() :int</text>
</g>
<!-- Tehnician&#45;&gt;Technical_Staff -->
<g id="edge2" class="edge">
<title>Tehnician&#45;&gt;Technical_Staff</title>
<path fill="none" stroke="black" d="M520.84,-730.43C507.67,-720.67 493.69,-710.31 480.59,-700.6"/>
<polygon fill="none" stroke="black" points="483.02,-698.04 472.9,-694.9 478.85,-703.67 483.02,-698.04"/>
<text text-anchor="middle" x="494.37" y="-714.65" font-family="Times New Roman,serif" font-size="14.00"> </text>
</g>
<!-- Nurse -->
<g id="node18" class="node">
<title>Nurse</title>
<polygon fill="none" stroke="black" points="304.62,-738.62 304.62,-809.88 358.62,-809.88 358.62,-738.62 304.62,-738.62"/>
<text text-anchor="middle" x="331.62" y="-792.58" font-family="Times New Roman,serif" font-size="14.00">Nurse</text>
<polyline fill="none" stroke="black" points="304.62,-786.12 358.62,-786.12"/>
<text text-anchor="middle" x="331.62" y="-768.83" font-family="Times New Roman,serif" font-size="14.00"> </text>
<polyline fill="none" stroke="black" points="304.62,-762.38 358.62,-762.38"/>
<text text-anchor="middle" x="331.62" y="-745.08" font-family="Times New Roman,serif" font-size="14.00"> </text>
</g>
<!-- Nurse&#45;&gt;Operations_Staff -->
<g id="edge9" class="edge">
<title>Nurse&#45;&gt;Operations_Staff</title>
<path fill="none" stroke="black" d="M315.13,-738.39C310.05,-727.65 304.38,-715.67 299.02,-704.33"/>
<polygon fill="none" stroke="black" points="302.29,-703.08 294.85,-695.53 295.97,-706.07 302.29,-703.08"/>
<text text-anchor="middle" x="302.74" y="-718.62" font-family="Times New Roman,serif" font-size="14.00"> </text>
</g>
</g>
</svg>
